<svg xmlns="http://www.w3.org/2000/svg" width="720" height="1280" viewBox="0 0 720 1280"><defs>
  <linearGradient id="sky" x1="0" y1="0" x2="0" y2="1">
    <stop offset="0" stop-color="#9FD3E8"/><stop offset="0.55" stop-color="#BEE3D8"/><stop offset="1" stop-color="#D9F0E3"/>
  </linearGradient>
  <radialGradient id="sun" cx="0.5" cy="0.5" r="0.5">
    <stop offset="0" stop-color="#FFE98A"/><stop offset="0.7" stop-color="#FFDF5C"/><stop offset="1" stop-color="#FFDF5C" stop-opacity="0"/>
  </radialGradient>
  <linearGradient id="hillFar" x1="0" y1="0" x2="0" y2="1">
    <stop offset="0" stop-color="#B5DCA0"/><stop offset="1" stop-color="#A3D18B"/>
  </linearGradient>
  <linearGradient id="hillNear" x1="0" y1="0" x2="0" y2="1">
    <stop offset="0" stop-color="#8FC96E"/><stop offset="1" stop-color="#7CB95A"/>
  </linearGradient>
  <linearGradient id="grass" x1="0" y1="0" x2="0" y2="1">
    <stop offset="0" stop-color="#8AD35C"/><stop offset="0.4" stop-color="#7EC850"/><stop offset="1" stop-color="#6DB544"/>
  </linearGradient>
  <linearGradient id="paper" x1="0" y1="0" x2="0" y2="1">
    <stop offset="0" stop-color="#FFFDF5"/><stop offset="1" stop-color="#F9EFD8"/>
  </linearGradient>
  <linearGradient id="paperDeep" x1="0" y1="0" x2="0" y2="1">
    <stop offset="0" stop-color="#FFF8E7"/><stop offset="1" stop-color="#F3E4C2"/>
  </linearGradient>
  <linearGradient id="gold" x1="0" y1="0" x2="0" y2="1">
    <stop offset="0" stop-color="#F8D464"/><stop offset="0.5" stop-color="#F2B830"/><stop offset="1" stop-color="#DF9E1E"/>
  </linearGradient>
  <linearGradient id="goldSoft" x1="0" y1="0" x2="0" y2="1">
    <stop offset="0" stop-color="#FFE9A8"/><stop offset="1" stop-color="#F5D47E"/>
  </linearGradient>
  <linearGradient id="woodV" x1="0" y1="0" x2="0" y2="1">
    <stop offset="0" stop-color="#9C6A38"/><stop offset="1" stop-color="#7E5127"/>
  </linearGradient>
  <linearGradient id="woodWall" x1="0" y1="0" x2="0" y2="1">
    <stop offset="0" stop-color="#8B5F33"/><stop offset="1" stop-color="#6F4822"/>
  </linearGradient>
  <linearGradient id="woodSign" x1="0" y1="0" x2="0" y2="1">
    <stop offset="0" stop-color="#A0713D"/><stop offset="1" stop-color="#8B5A2B"/>
  </linearGradient>
  <linearGradient id="soilBed" x1="0" y1="0" x2="0" y2="1">
    <stop offset="0" stop-color="#A5764E"/><stop offset="0.5" stop-color="#96683F"/><stop offset="1" stop-color="#7E5636"/>
  </linearGradient>
  <radialGradient id="tomatoG" cx="0.35" cy="0.3" r="0.9">
    <stop offset="0" stop-color="#F2795F"/><stop offset="0.55" stop-color="#E8563F"/><stop offset="1" stop-color="#C23A28"/>
  </radialGradient>
  <radialGradient id="goldFruit" cx="0.35" cy="0.3" r="0.9">
    <stop offset="0" stop-color="#F8DA6E"/><stop offset="1" stop-color="#E3A81F"/>
  </radialGradient>
  <radialGradient id="orangeG" cx="0.35" cy="0.3" r="0.9">
    <stop offset="0" stop-color="#F7A95C"/><stop offset="1" stop-color="#E0761A"/>
  </radialGradient>
  <radialGradient id="greenG" cx="0.35" cy="0.3" r="0.9">
    <stop offset="0" stop-color="#8FD468"/><stop offset="1" stop-color="#4E9433"/>
  </radialGradient>
  <radialGradient id="potatoG" cx="0.35" cy="0.3" r="0.9">
    <stop offset="0" stop-color="#D39E66"/><stop offset="1" stop-color="#A9713F"/>
  </radialGradient>
  <radialGradient id="pinkG" cx="0.35" cy="0.3" r="0.9">
    <stop offset="0" stop-color="#F6BFCB"/><stop offset="1" stop-color="#E8557A"/>
  </radialGradient>
  <radialGradient id="melonG" cx="0.35" cy="0.3" r="0.9">
    <stop offset="0" stop-color="#57A85C"/><stop offset="1" stop-color="#2E7D32"/>
  </radialGradient>
  <radialGradient id="cabbageG" cx="0.35" cy="0.3" r="0.9">
    <stop offset="0" stop-color="#E9F2C8"/><stop offset="1" stop-color="#9CBF6A"/>
  </radialGradient>
  <radialGradient id="mushroomCapG" cx="0.35" cy="0.3" r="0.9">
    <stop offset="0" stop-color="#C8A87E"/><stop offset="1" stop-color="#8A6844"/>
  </radialGradient>
  <radialGradient id="chiliG" cx="0.35" cy="0.3" r="0.9">
    <stop offset="0" stop-color="#E8604C"/><stop offset="1" stop-color="#A03020"/>
  </radialGradient>
  <radialGradient id="eggplantG" cx="0.35" cy="0.3" r="0.9">
    <stop offset="0" stop-color="#B98FD6"/><stop offset="1" stop-color="#5E3A8E"/>
  </radialGradient>
  <radialGradient id="peanutG" cx="0.35" cy="0.3" r="0.9">
    <stop offset="0" stop-color="#F2DBB0"/><stop offset="1" stop-color="#B08A4E"/>
  </radialGradient>
  <radialGradient id="grapeG" cx="0.35" cy="0.3" r="0.9">
    <stop offset="0" stop-color="#B39CE0"/><stop offset="1" stop-color="#5E35B1"/>
  </radialGradient>
  <radialGradient id="peachG" cx="0.35" cy="0.3" r="0.9">
    <stop offset="0" stop-color="#FAD9C4"/><stop offset="1" stop-color="#F08A6B"/>
  </radialGradient>
  <radialGradient id="plateG" cx="0.4" cy="0.3" r="1">
    <stop offset="0" stop-color="#FFFDF8"/><stop offset="1" stop-color="#E9DFC9"/>
  </radialGradient>
  <radialGradient id="bunG" cx="0.4" cy="0.3" r="1">
    <stop offset="0" stop-color="#FFFDF5"/><stop offset="1" stop-color="#EFE0C2"/>
  </radialGradient>
  <radialGradient id="breadG" cx="0.35" cy="0.3" r="1">
    <stop offset="0" stop-color="#F0CE8E"/><stop offset="1" stop-color="#C98F4E"/>
  </radialGradient>
  <radialGradient id="jamG" cx="0.35" cy="0.3" r="1">
    <stop offset="0" stop-color="#F2637F"/><stop offset="1" stop-color="#C21847"/>
  </radialGradient>
  <radialGradient id="potG" cx="0.4" cy="0.25" r="1.1">
    <stop offset="0" stop-color="#5E5E66"/><stop offset="0.6" stop-color="#43434A"/><stop offset="1" stop-color="#2E2E33"/>
  </radialGradient>
  <radialGradient id="soupG" cx="0.4" cy="0.35" r="0.9">
    <stop offset="0" stop-color="#F2836A"/><stop offset="1" stop-color="#D24A33"/>
  </radialGradient>
  <linearGradient id="awnRed" x1="0" y1="0" x2="0" y2="1">
    <stop offset="0" stop-color="#EE6B50"/><stop offset="1" stop-color="#D24A33"/>
  </linearGradient>
  <linearGradient id="awnCream" x1="0" y1="0" x2="0" y2="1">
    <stop offset="0" stop-color="#FFFDF5"/><stop offset="1" stop-color="#F3E4C2"/>
  </linearGradient>
  <filter id="soft" x="-40%" y="-40%" width="180%" height="180%">
    <feDropShadow dx="3" dy="6" stdDeviation="6" flood-color="#4A3520" flood-opacity="0.28"/>
  </filter>
  <filter id="softSm" x="-40%" y="-40%" width="180%" height="180%">
    <feDropShadow dx="1.5" dy="3" stdDeviation="3" flood-color="#4A3520" flood-opacity="0.25"/>
  </filter>
  <filter id="blur4"><feGaussianBlur stdDeviation="4"/></filter>
  <filter id="blur8"><feGaussianBlur stdDeviation="8"/></filter>
  <filter id="grain">
    <feTurbulence type="fractalNoise" baseFrequency="0.8" numOctaves="2" stitchTiles="stitch"/>
    <feColorMatrix type="matrix" values="0 0 0 0 0.29  0 0 0 0 0.21  0 0 0 0 0.13  0 0 0 0.5 0"/>
  </filter>
  <!-- 水彩质感套件（美术 v1.1）：晕染出血 + 手绘抖动描边 + 双层颜料不均 + 边缘沉色 -->
  <filter id="bleed" x="-15%" y="-15%" width="130%" height="130%">
    <feGaussianBlur stdDeviation="2.2"/>
  </filter>
  <filter id="wcIcon" x="-12%" y="-12%" width="124%" height="124%">
    <feTurbulence type="fractalNoise" baseFrequency="0.03" numOctaves="3" seed="11" result="wob"/>
    <feDisplacementMap in="SourceGraphic" in2="wob" scale="3" xChannelSelector="R" yChannelSelector="G" result="disp"/>
    <feTurbulence type="fractalNoise" baseFrequency="0.02" numOctaves="3" seed="5" result="pigL"/>
    <feColorMatrix in="pigL" type="matrix" values="0 0 0 0 0 0 0 0 0 0 0 0 0 0 0 1 1 1 0 -0.35" result="pigLA"/>
    <feComposite in="disp" in2="pigLA" operator="in" result="blotch1"/>
    <feTurbulence type="fractalNoise" baseFrequency="0.35" numOctaves="2" seed="9" result="pigF"/>
    <feColorMatrix in="pigF" type="matrix" values="0 0 0 0 0 0 0 0 0 0 0 0 0 0 0 0.12 0.12 0.12 0 0.86" result="pigFA"/>
    <feComposite in="blotch1" in2="pigFA" operator="in" result="blotch2"/>
    <feMorphology in="blotch2" operator="erode" radius="1.5" result="er"/>
    <feComposite in="blotch2" in2="er" operator="out" result="ring"/>
    <feFlood flood-color="#3A2415" flood-opacity="0.3" result="poolC"/>
    <feComposite in="poolC" in2="ring" operator="in" result="pool"/>
    <feMerge>
      <feMergeNode in="blotch2"/>
      <feMergeNode in="pool"/>
    </feMerge>
  </filter>
  <filter id="wcBg" x="-4%" y="-4%" width="108%" height="108%">
    <feTurbulence type="fractalNoise" baseFrequency="0.007" numOctaves="3" seed="23" result="wob"/>
    <feDisplacementMap in="SourceGraphic" in2="wob" scale="4" xChannelSelector="R" yChannelSelector="G" result="disp"/>
    <feFlood flood-color="#FFF3D9" result="creamC"/>
    <feTurbulence type="fractalNoise" baseFrequency="0.006" numOctaves="3" seed="17" result="washL"/>
    <feColorMatrix in="washL" type="matrix" values="0 0 0 0 0 0 0 0 0 0 0 0 0 0 0 0.18 0.18 0.18 0 -0.22" result="washLA"/>
    <feComposite in="creamC" in2="washLA" operator="in" result="washL2"/>
    <feComposite in="washL2" in2="disp" operator="atop" result="w1"/>
    <feFlood flood-color="#6B4423" result="brownC"/>
    <feTurbulence type="fractalNoise" baseFrequency="0.01" numOctaves="3" seed="31" result="washD"/>
    <feColorMatrix in="washD" type="matrix" values="0 0 0 0 0 0 0 0 0 0 0 0 0 0 0 0.1 0.1 0.1 0 -0.12" result="washDA"/>
    <feComposite in="brownC" in2="washDA" operator="in" result="washD2"/>
    <feComposite in="washD2" in2="w1" operator="atop"/>
  </filter>
  <!-- wcBg 柔和版：水洗双层强度减半（厨房等深底色页面，奶油水洗会显白斑） -->
  <filter id="wcBgSoft" x="-4%" y="-4%" width="108%" height="108%">
    <feTurbulence type="fractalNoise" baseFrequency="0.007" numOctaves="3" seed="23" result="wob"/>
    <feDisplacementMap in="SourceGraphic" in2="wob" scale="4" xChannelSelector="R" yChannelSelector="G" result="disp"/>
    <feFlood flood-color="#FFF3D9" result="creamC"/>
    <feTurbulence type="fractalNoise" baseFrequency="0.006" numOctaves="3" seed="17" result="washL"/>
    <feColorMatrix in="washL" type="matrix" values="0 0 0 0 0 0 0 0 0 0 0 0 0 0 0 0.035 0.035 0.035 0 -0.045" result="washLA"/>
    <feComposite in="creamC" in2="washLA" operator="in" result="washL2"/>
    <feComposite in="washL2" in2="disp" operator="atop" result="w1"/>
    <feFlood flood-color="#6B4423" result="brownC"/>
    <feTurbulence type="fractalNoise" baseFrequency="0.01" numOctaves="3" seed="31" result="washD"/>
    <feColorMatrix in="washD" type="matrix" values="0 0 0 0 0 0 0 0 0 0 0 0 0 0 0 0.05 0.05 0.05 0 -0.06" result="washDA"/>
    <feComposite in="brownC" in2="washDA" operator="in" result="washD2"/>
    <feComposite in="washD2" in2="w1" operator="atop"/>
  </filter>
</defs><g filter="url(#wcBgSoft)"><rect x="-8" y="-8" width="736" height="1296" rx="0" fill="url(#woodWall)" stroke="none" stroke-width="0" /><path d="M0 0 L0 1280" fill="none" stroke="#5A3820" stroke-width="3" stroke-linecap="round" opacity="0.8"/><path d="M3 0 L3 1280" fill="none" stroke="#A0713D" stroke-width="1.5" stroke-linecap="round" opacity="0.5"/><path d="M90 0 L90 1280" fill="none" stroke="#5A3820" stroke-width="3" stroke-linecap="round" opacity="0.8"/><path d="M93 0 L93 1280" fill="none" stroke="#A0713D" stroke-width="1.5" stroke-linecap="round" opacity="0.5"/><path d="M180 0 L180 1280" fill="none" stroke="#5A3820" stroke-width="3" stroke-linecap="round" opacity="0.8"/><path d="M183 0 L183 1280" fill="none" stroke="#A0713D" stroke-width="1.5" stroke-linecap="round" opacity="0.5"/><path d="M270 0 L270 1280" fill="none" stroke="#5A3820" stroke-width="3" stroke-linecap="round" opacity="0.8"/><path d="M273 0 L273 1280" fill="none" stroke="#A0713D" stroke-width="1.5" stroke-linecap="round" opacity="0.5"/><path d="M360 0 L360 1280" fill="none" stroke="#5A3820" stroke-width="3" stroke-linecap="round" opacity="0.8"/><path d="M363 0 L363 1280" fill="none" stroke="#A0713D" stroke-width="1.5" stroke-linecap="round" opacity="0.5"/><path d="M450 0 L450 1280" fill="none" stroke="#5A3820" stroke-width="3" stroke-linecap="round" opacity="0.8"/><path d="M453 0 L453 1280" fill="none" stroke="#A0713D" stroke-width="1.5" stroke-linecap="round" opacity="0.5"/><path d="M540 0 L540 1280" fill="none" stroke="#5A3820" stroke-width="3" stroke-linecap="round" opacity="0.8"/><path d="M543 0 L543 1280" fill="none" stroke="#A0713D" stroke-width="1.5" stroke-linecap="round" opacity="0.5"/><path d="M630 0 L630 1280" fill="none" stroke="#5A3820" stroke-width="3" stroke-linecap="round" opacity="0.8"/><path d="M633 0 L633 1280" fill="none" stroke="#A0713D" stroke-width="1.5" stroke-linecap="round" opacity="0.5"/><path d="M720 0 L720 1280" fill="none" stroke="#5A3820" stroke-width="3" stroke-linecap="round" opacity="0.8"/><path d="M723 0 L723 1280" fill="none" stroke="#A0713D" stroke-width="1.5" stroke-linecap="round" opacity="0.5"/><ellipse cx="150" cy="300" rx="10" ry="6" fill="#5A3820" opacity="0.5"/><ellipse cx="560" cy="760" rx="8" ry="5" fill="#5A3820" opacity="0.45"/><ellipse cx="360" cy="-60" rx="480" ry="220" fill="#F2B830" opacity="0.14" filter="url(#blur8)"/><g transform="translate(58 128) rotate(-4)"><path d="M10 -26 Q21 -40 32 -26" fill="none" stroke="#D9C9A8" stroke-width="3.5" stroke-linecap="round" /><path d="M12 -26 L8 -44 M30 -26 L34 -44" fill="none" stroke="#D9C9A8" stroke-width="3" stroke-linecap="round" /><rect x="6" y="-28" width="30" height="26" rx="7" fill="#F3E4C2" stroke="#4A3520" stroke-width="2" /><path d="M2 -4 L40 -4 L50 62 Q21 76 -8 62 Z" fill="#F3E4C2" stroke="#4A3520" stroke-width="2" filter="url(#softSm)"/><rect x="-4" y="-8" width="50" height="10" rx="5" fill="#E8A34F" stroke="#4A3520" stroke-width="1.6" /><path d="M-8 2 L-22 -4 M50 2 L64 -4" fill="none" stroke="#E8A34F" stroke-width="3" stroke-linecap="round" /><rect x="12" y="26" width="18" height="16" rx="5" fill="#FFF8E7" stroke="#C9B891" stroke-width="1.8" /><path d="M14 30 L28 30" fill="none" stroke="#C9B891" stroke-width="1.2" stroke-linecap="round" stroke-dasharray="3 2"/></g><g transform="translate(596 104)"><rect x="-14" y="30" width="122" height="10" rx="4" fill="url(#woodV)" stroke="#5A3820" stroke-width="1.5" filter="url(#softSm)"/><rect x="0" y="-2" width="26" height="32" rx="6" fill="#D9F0E3" stroke="#4A3520" stroke-width="2" opacity="0.9"/><rect x="3" y="8" width="20" height="22" rx="4" fill="#E8563F" stroke="none" stroke-width="0" opacity="0.75"/><rect x="4" y="-8" width="18" height="7" rx="3" fill="#8B5A2B" stroke="#4A3520" stroke-width="1.5" /><rect x="40" y="2" width="26" height="28" rx="6" fill="#D9F0E3" stroke="#4A3520" stroke-width="2" opacity="0.9"/><rect x="43" y="10" width="20" height="18" rx="4" fill="#F2B830" stroke="none" stroke-width="0" opacity="0.8"/><rect x="44" y="-4" width="18" height="7" rx="3" fill="#8B5A2B" stroke="#4A3520" stroke-width="1.5" /><path d="M92 0 L92 12" fill="none" stroke="#D9C9A8" stroke-width="2.5" stroke-linecap="round" /><path d="M92 12 Q78 26 82 44 Q92 36 92 24 Q92 36 102 44 Q106 26 92 12 Z" fill="url(#greenG)" stroke="#4A3520" stroke-width="1.5"/></g><rect x="0" y="648" width="720" height="34" rx="0" fill="#A0713D" stroke="none" stroke-width="0" /><rect x="0" y="648" width="720" height="5" rx="0" fill="#C89A62" stroke="none" stroke-width="0" opacity="0.9"/><rect x="0" y="682" width="720" height="46" rx="0" fill="url(#woodV)" stroke="none" stroke-width="0" /><path d="M0 686 L720 686" fill="none" stroke="#5A3820" stroke-width="2.5" stroke-linecap="round" opacity="0.7"/><rect x="0" y="1108" width="720" height="172" rx="0" fill="#7E5127" stroke="none" stroke-width="0" /><path d="M0 1128 L720 1128" fill="none" stroke="#5A3820" stroke-width="2.5" stroke-linecap="round" opacity="0.7"/><path d="M0 1168 L720 1168" fill="none" stroke="#5A3820" stroke-width="2.5" stroke-linecap="round" opacity="0.7"/><path d="M0 1208 L720 1208" fill="none" stroke="#5A3820" stroke-width="2.5" stroke-linecap="round" opacity="0.7"/><path d="M0 1248 L720 1248" fill="none" stroke="#5A3820" stroke-width="2.5" stroke-linecap="round" opacity="0.7"/><rect x="0" y="1108" width="720" height="8" rx="0" fill="#5A3820" stroke="none" stroke-width="0" opacity="0.8"/><g transform="translate(540 792)"><rect x="-6" y="26" width="156" height="10" rx="4" fill="url(#woodV)" stroke="#5A3820" stroke-width="1.5" filter="url(#softSm)"/><ellipse cx="30" cy="22" rx="26" ry="6" fill="#4A3520" opacity="0.18"/><ellipse cx="30" cy="12" rx="24" ry="12" fill="#F3E4C2" stroke="#4A3520" stroke-width="2"/><ellipse cx="30" cy="6" rx="20" ry="9" fill="#FFFDF5" stroke="#4A3520" stroke-width="1.6"/><ellipse cx="30" cy="4" rx="13" ry="5" fill="#E3D9C4" /><ellipse cx="88" cy="22" rx="22" ry="5" fill="#4A3520" opacity="0.18"/><ellipse cx="88" cy="12" rx="20" ry="11" fill="#D9A05B" stroke="#4A3520" stroke-width="2"/><ellipse cx="88" cy="6" rx="16" ry="7" fill="#F2C878" stroke="#4A3520" stroke-width="1.5"/><path d="M126 26 L126 44" fill="none" stroke="#D9C9A8" stroke-width="2" stroke-linecap="round" /><rect x="118" y="42" width="17" height="16" rx="5" fill="#F3E4C2" stroke="#4A3520" stroke-width="1.8" /><path d="M135 46 q7 3 0 8" fill="none" stroke="#4A3520" stroke-width="1.8" stroke-linecap="round" /></g><g transform="translate(92 786) rotate(-3)"><path d="M0 -26 L0 -14" fill="none" stroke="#D9C9A8" stroke-width="2.5" stroke-linecap="round" /><ellipse cx="0" cy="-6" rx="10" ry="11" fill="#FFF8E7" stroke="#4A3520" stroke-width="1.8"/><ellipse cx="-8" cy="8" rx="10" ry="11" fill="#F5ECD4" stroke="#4A3520" stroke-width="1.8"/><ellipse cx="8" cy="10" rx="10" ry="11" fill="#FFF8E7" stroke="#4A3520" stroke-width="1.8"/><ellipse cx="0" cy="24" rx="10" ry="11" fill="#F5ECD4" stroke="#4A3520" stroke-width="1.8"/><path d="M0 -16 L-3 -24 M0 -16 L3 -24" fill="none" stroke="#7EC850" stroke-width="2" stroke-linecap="round" /></g><ellipse cx="360" cy="656" rx="150" ry="16" fill="#4A3520" opacity="0.3" filter="url(#blur4)"/><path d="M232 566 Q226 640 262 652 L458 652 Q494 640 488 566 Z" fill="url(#potG)" stroke="#2E2E33" stroke-width="2.5"/><path d="M250 580 Q246 620 262 640" fill="none" stroke="#8E8E99" stroke-width="5" stroke-linecap="round" opacity="0.5"/><path d="M224 578 q-16 6 -12 20 M496 578 q16 6 12 20" fill="none" stroke="#3A3A41" stroke-width="7" stroke-linecap="round" /><ellipse cx="360" cy="566" rx="128" ry="32" fill="#2E2E33" stroke="#1F1F23" stroke-width="2"/><ellipse cx="360" cy="566" rx="110" ry="25" fill="url(#soupG)" /><ellipse cx="336" cy="560" rx="34" ry="8" fill="#F8A58E" opacity="0.7"/><circle cx="382" cy="570" r="4" fill="#F8A58E" opacity="0.6"/><circle cx="398" cy="562" r="3" fill="#F8A58E" opacity="0.5"/><path d="M326 522 q7 -12 0 -24 q-7 -10 0 -20" fill="none" stroke="#FFFFFF" stroke-width="3" stroke-linecap="round" opacity="0.12" filter="url(#blur4)"/><path d="M362 526 q7 -12 0 -24 q-7 -10 0 -20" fill="none" stroke="#FFFFFF" stroke-width="3" stroke-linecap="round" opacity="0.09" filter="url(#blur4)"/><path d="M398 522 q7 -12 0 -24 q-7 -10 0 -20" fill="none" stroke="#FFFFFF" stroke-width="3" stroke-linecap="round" opacity="0.06" filter="url(#blur4)"/><g transform="translate(72 598)"><ellipse cx="62" cy="46" rx="68" ry="8" fill="#4A3520" opacity="0.22" filter="url(#blur4)"/><rect x="0" y="8" width="128" height="34" rx="12" fill="#D9A05B" stroke="#4A3520" stroke-width="2.2" filter="url(#softSm)"/><rect x="10" y="14" width="108" height="8" rx="4" fill="#F2C878" stroke="none" stroke-width="0" opacity="0.5"/><circle cx="14" cy="18" r="4" fill="none" stroke="#4A3520" stroke-width="2"/><circle cx="48" cy="18" r="13" fill="url(#tomatoG)" stroke="#4A3520" stroke-width="1.8"/><circle cx="50" cy="17" r="8" fill="#F2795F" /><circle cx="50" cy="17" r="4" fill="#F8A58E" /><ellipse cx="78" cy="24" rx="12" ry="5" fill="#E8563F" stroke="#4A3520" stroke-width="1.6"/><ellipse cx="100" cy="20" rx="11" ry="5" fill="#E8563F" stroke="#4A3520" stroke-width="1.6"/><path d="M96 34 L124 26" fill="none" stroke="#C9C2B8" stroke-width="5" stroke-linecap="round" /><path d="M124 26 L136 22" fill="none" stroke="#6B4423" stroke-width="6" stroke-linecap="round" /></g><g transform="translate(560 596)"><ellipse cx="34" cy="48" rx="56" ry="7" fill="#4A3520" opacity="0.2" filter="url(#blur4)"/><rect x="0" y="10" width="30" height="36" rx="8" fill="#D9F0E3" stroke="#4A3520" stroke-width="2" opacity="0.95"/><rect x="4" y="24" width="22" height="20" rx="5" fill="#FFFDF5" stroke="none" stroke-width="0" opacity="0.8"/><rect x="5" y="2" width="20" height="9" rx="4" fill="#8B5A2B" stroke="#4A3520" stroke-width="1.6" /><rect x="42" y="14" width="28" height="32" rx="8" fill="#D9F0E3" stroke="#4A3520" stroke-width="2" opacity="0.95"/><rect x="46" y="26" width="20" height="18" rx="5" fill="#F2E3B3" stroke="none" stroke-width="0" opacity="0.85"/><rect x="47" y="6" width="18" height="9" rx="4" fill="#8B5A2B" stroke="#4A3520" stroke-width="1.6" /></g></g></svg>